<?xml version="1.0" encoding="UTF-8" standalone="no"?>
<svg
   xmlns:dc="http://purl.org/dc/elements/1.1/"
   xmlns:cc="http://creativecommons.org/ns#"
   xmlns:rdf="http://www.w3.org/1999/02/22-rdf-syntax-ns#"
   xmlns:svg="http://www.w3.org/2000/svg"
   xmlns="http://www.w3.org/2000/svg"
   xmlns:sodipodi="http://sodipodi.sourceforge.net/DTD/sodipodi-0.dtd"
   xmlns:inkscape="http://www.inkscape.org/namespaces/inkscape"
   id="svg956"
   version="1.1"
   viewBox="0 0 41.274998 41.274998"
   height="156"
   width="156"
   sodipodi:docname="icon-train.svg"
   inkscape:version="0.92.5 (2060ec1f9f, 2020-04-08)">
  <sodipodi:namedview
     pagecolor="#ffffff"
     bordercolor="#666666"
     borderopacity="1"
     objecttolerance="10"
     gridtolerance="10"
     guidetolerance="10"
     inkscape:pageopacity="0"
     inkscape:pageshadow="2"
     inkscape:window-width="1920"
     inkscape:window-height="1029"
     id="namedview21"
     showgrid="false"
     inkscape:zoom="0.90467032"
     inkscape:cx="363.77715"
     inkscape:cy="1.1879704"
     inkscape:window-x="0"
     inkscape:window-y="25"
     inkscape:window-maximized="1"
     inkscape:current-layer="svg956" />
  <defs
     id="defs950" />
  <metadata
     id="metadata953">
    <rdf:RDF>
      <cc:Work
         rdf:about="">
        <dc:format>image/svg+xml</dc:format>
        <dc:type
           rdf:resource="http://purl.org/dc/dcmitype/StillImage" />
        <dc:title />
      </cc:Work>
    </rdf:RDF>
  </metadata>
  <path
     style="fill:#ffffff;stroke:none;stroke-width:0.01909676;stroke-linecap:butt;stroke-linejoin:miter;stroke-miterlimit:2.61299992;stroke-dasharray:none;stroke-opacity:1"
     d="m 22.409775,13.615008 c -1.025609,0 -1.772502,0.839094 -1.772502,1.866036 v 0.933277 c 0,0.185383 -0.186903,0.37207 -0.37362,0.37207 h -2.752804 c -0.186717,0 -0.373104,-0.186687 -0.373104,-0.37207 v -2.332674 c 0,-0.23473 -0.1854,-0.421163 -0.420129,-0.421163 h -6.392374 c -0.3267547,0 -0.560173,0.280096 -0.560173,0.560172 0,0.280075 0.2334183,0.513664 0.560173,0.513664 h 2.892846 c 0.186717,0 0.373104,0.139708 0.373104,0.373104 v 3.032889 c 0,0.234731 -0.186387,0.373621 -0.373104,0.373621 h -2.986381 c -0.2333959,0 -0.4201293,0.186733 -0.4201293,0.420129 v 4.431771 c 0,0.23473 0.1867334,0.421163 0.4201293,0.421163 h 20.857642 c 0.233394,0 0.420129,-0.186433 0.420129,-0.421163 v -6.205822 c 0,-0.186717 -0.186735,-0.373621 -0.420129,-0.373621 h -0.746726 c -0.186716,0 -0.373621,-0.186687 -0.373621,-0.37207 V 13.94057 c 0,-0.138704 -0.09337,-0.280086 -0.280085,-0.280086 H 27.96344 c -0.186714,0 -0.280086,0.141382 -0.280086,0.280086 v 2.473751 c 0,0.185383 -0.186904,0.37207 -0.37362,0.37207 H 24.55693 c -0.186716,0 -0.37362,-0.186687 -0.37362,-0.37207 v -0.933277 c 0,-1.026942 -0.745259,-1.866036 -1.773535,-1.866036 z M 10.885414,24.440187 c 0,0.140038 -0.04703,0.3266 -0.04703,0.466638 0,1.53908 1.259285,2.752805 2.754353,2.752805 1.492401,0 2.752804,-1.213725 2.752804,-2.752805 0,-0.140038 -0.04806,-0.3266 -0.04806,-0.466638 z m 7.045564,0 c 0,0.140038 -0.04651,0.3266 -0.04651,0.466638 0,1.53908 1.258769,2.752805 2.753837,2.752805 1.492401,0 2.752803,-1.213725 2.752803,-2.752805 0,-0.140038 -0.04806,-0.3266 -0.04806,-0.466638 z m 7.046082,0 c -0.04668,0.140038 -0.04651,0.3266 -0.04651,0.466638 0,1.53908 1.213423,2.752805 2.753838,2.752805 1.492401,0 2.752802,-1.213725 2.752802,-2.752805 0,-0.140038 -0.04806,-0.3266 -0.04806,-0.466638 z"
     id="path5030-6"
     inkscape:connector-curvature="0"
     sodipodi:nodetypes="ssssssssssssssssssssssssssssssssssscssscccsssccccsscc" />
</svg>
