<?xml version="1.0" encoding="UTF-8" standalone="no"?>
<svg
   xmlns:dc="http://purl.org/dc/elements/1.1/"
   xmlns:cc="http://creativecommons.org/ns#"
   xmlns:rdf="http://www.w3.org/1999/02/22-rdf-syntax-ns#"
   xmlns:svg="http://www.w3.org/2000/svg"
   xmlns="http://www.w3.org/2000/svg"
   id="svg928"
   version="1.1"
   viewBox="0 0 41.254954 41.222085"
   height="155.8"
   width="155.92424">
  <defs
     id="defs922" />
  <metadata
     id="metadata925">
    <rdf:RDF>
      <cc:Work
         rdf:about="">
        <dc:format>image/svg+xml</dc:format>
        <dc:type
           rdf:resource="http://purl.org/dc/dcmitype/StillImage" />
        <dc:title></dc:title>
      </cc:Work>
    </rdf:RDF>
  </metadata>
  <g
     transform="translate(-66.972211,-98.954888)"
     id="layer1">
    <path
       id="path874-3"
       d="m 107.31674,109.64406 a 5.1858333,5.1858333 0 0 0 -3.65125,-3.65125 c -3.20146,-0.87313 -16.086671,-0.87313 -16.086671,-0.87313 0,0 -12.885208,0.0265 -16.086663,0.89958 a 5.1858333,5.1858333 0 0 0 -3.65125,3.65125 c -0.968375,5.68855 -1.344084,14.35629 0.02646,19.81729 a 5.1858333,5.1858333 0 0 0 3.65125,3.65125 c 3.201456,0.87313 16.086664,0.87313 16.086664,0.87313 0,0 12.88521,0 16.08667,-0.87313 a 5.1858333,5.1858333 0 0 0 3.65125,-3.65125 c 1.02129,-5.69648 1.33614,-14.35893 -0.0265,-19.84374 z"
       style="fill:#ff0000;stroke-width:0.26458332" />
  </g>
</svg>
